<svg width="50" height="50" viewBox="0 0 50 50" fill="none" xmlns="http://www.w3.org/2000/svg">
<circle cx="25" cy="25" r="25" fill="#2B2D42"/>
<path d="M19.697 31.85C20.447 31.85 21.077 31.76 21.587 31.58C22.097 31.4 22.502 31.16 22.802 30.86C23.112 30.56 23.332 30.21 23.462 29.81C23.602 29.41 23.672 28.985 23.672 28.535C23.672 28.065 23.597 27.645 23.447 27.275C23.297 26.895 23.062 26.575 22.742 26.315C22.422 26.045 22.007 25.84 21.497 25.7C20.997 25.56 20.392 25.49 19.682 25.49H15.617V31.85H19.697ZM15.617 16.43V22.7H18.827C20.207 22.7 21.247 22.45 21.947 21.95C22.657 21.45 23.012 20.655 23.012 19.565C23.012 18.435 22.692 17.63 22.052 17.15C21.412 16.67 20.412 16.43 19.052 16.43H15.617ZM19.052 13.31C20.472 13.31 21.687 13.445 22.697 13.715C23.707 13.985 24.532 14.37 25.172 14.87C25.822 15.37 26.297 15.975 26.597 16.685C26.897 17.395 27.047 18.195 27.047 19.085C27.047 19.595 26.972 20.085 26.822 20.555C26.672 21.015 26.437 21.45 26.117 21.86C25.807 22.26 25.407 22.625 24.917 22.955C24.437 23.285 23.862 23.565 23.192 23.795C26.172 24.465 27.662 26.075 27.662 28.625C27.662 29.545 27.487 30.395 27.137 31.175C26.787 31.955 26.277 32.63 25.607 33.2C24.937 33.76 24.112 34.2 23.132 34.52C22.152 34.84 21.032 35 19.772 35H11.582V13.31H19.052ZM33.6831 36.35L32.2431 34.4C33.2631 33.82 33.9531 33.28 34.3131 32.78C34.6731 32.28 34.8531 31.76 34.8531 31.22C34.8531 30.64 34.7031 30.09 34.4031 29.57C34.1031 29.03 33.7331 28.49 33.2931 27.95C32.8531 27.41 32.4031 26.84 31.9431 26.24C31.5031 25.62 31.1331 24.95 30.8331 24.23C30.5331 23.49 30.3831 22.68 30.3831 21.8C30.3831 20.14 30.8031 18.69 31.6431 17.45C32.5031 16.19 33.5831 15.04 34.8831 14L40.3731 17.66C39.2931 18.34 38.4031 19.09 37.7031 19.91C37.0031 20.73 36.6531 21.63 36.6531 22.61C36.6531 23.27 36.8031 23.89 37.1031 24.47C37.4231 25.05 37.7731 25.62 38.1531 26.18C38.5531 26.72 38.9031 27.27 39.2031 27.83C39.5231 28.39 39.6831 28.99 39.6831 29.63C39.6831 31.21 39.1331 32.55 38.0331 33.65C36.9531 34.73 35.5031 35.63 33.6831 36.35Z" fill="white"/>
</svg>
